# xmcd CD database file
#
# Track frame offsets:
#	150
#	14035
#	29108
#	44363
#	57538
#	77933
#	98103
#	113613
#	129460
#	143215
#
# Disc length: 2087 seconds
#
# Revision: 4
# Processed by: cddbd v1.5.2PL0 Copyright (c) Steve Scherf et al.
# Submitted via: CDex 2.09
#
DISCID=8f08250a
DTITLE=Kathy Mattea - Untasted Honey
DYEAR=1987
DGENRE=Country
TTITLE0=Untold Stories
TTITLE1=Life As We Knew It
TTITLE2=Eighteen Wheels And A Dozen Roses
TTITLE3=The Battle Hymn Of Love
TTITLE4=Late In The Day
TTITLE5=Goin' Gone
TTITLE6=Untasted Honey
TTITLE7=Like A Hurricane
TTITLE8=As Long As I Have A Heart
TTITLE9=Every Love
EXTD=YEAR: 1987
EXTT0=
EXTT1=
EXTT2=
EXTT3=
EXTT4=
EXTT5=
EXTT6=
EXTT7=
EXTT8=
EXTT9=
PLAYORDER=
